<?xml version="1.0" encoding="UTF-8" standalone="no"?>
<!DOCTYPE svg PUBLIC "-//W3C//DTD SVG 1.1//EN" "http://www.w3.org/Graphics/SVG/1.1/DTD/svg11.dtd">
<svg xmlns="http://www.w3.org/2000/svg" version="1.1" viewBox="0.00 0.00 360.00 154.00">
<path stroke="#c1029c" stroke-width="2.00" fill="none" stroke-linecap="butt" vector-effect="non-scaling-stroke" d="
  M 151.74 71.11
  L 135.99 61.87
  Q 135.61 61.65 135.18 61.60
  L 134.24 61.49"
/>
<path fill="#e3009a" d="
  M 151.74 71.11
  L 135.99 61.87
  Q 135.61 61.65 135.18 61.60
  L 134.24 61.49
  Q 144.34 40.55 164.73 32.28
  C 186.90 23.29 213.40 29.32 228.82 48.23
  Q 230.74 50.59 230.64 52.71
  Q 230.47 56.04 226.88 56.89
  Q 221.30 58.22 215.74 59.65
  Q 213.59 60.20 211.98 58.76
  C 191.99 40.99 162.47 46.01 151.74 71.11
  Z"
/>
<path fill="#9e049d" d="
  M 134.24 61.49
  L 135.18 61.60
  Q 135.61 61.65 135.99 61.87
  L 151.74 71.11
  Q 144.03 93.81 159.90 110.35
  C 171.35 122.29 190.68 124.35 205.07 115.60
  C 205.88 115.10 206.62 115.22 207.46 115.39
  Q 214.03 116.70 220.54 118.27
  C 224.73 119.29 226.29 124.22 222.82 127.15
  Q 201.74 144.96 173.78 139.84
  Q 172.75 139.65 171.74 139.89
  L 141.96 147.01
  A 3.97 3.96 -89.7 0 1 137.20 142.19
  L 142.38 121.43
  A 1.30 1.27 33.0 0 0 142.13 120.32
  C 128.67 103.64 125.39 81.41 134.24 61.49
  Z"
/>
<circle fill="#e3009a" cx="171.10" cy="84.10" r="3.74"/>
<circle fill="#e3009a" cx="186.04" cy="84.07" r="3.73"/>
<circle fill="#e3009a" cx="200.94" cy="84.07" r="3.75"/>
</svg>
